<svg xmlns="http://www.w3.org/2000/svg" viewBox="0 0 64 64" width="64" height="64">
  <defs>
    <linearGradient id="bg" x1="0" y1="0" x2="1" y2="1">
      <stop offset="0%" stop-color="#FF8C42"/>
      <stop offset="100%" stop-color="#FF6B1A"/>
    </linearGradient>
  </defs>
  <circle cx="32" cy="32" r="30" fill="url(#bg)" stroke="#1a1a1a" stroke-width="2"/>
  <!-- Construction helmet silhouette -->
  <path d="M20 34c0-6.6 5.4-12 12-12s12 5.4 12 12v2H20v-2z" fill="#0A0E14"/>
  <path d="M18 36h28v3c0 1.1-.9 2-2 2H20c-1.1 0-2-.9-2-2v-3z" fill="#0A0E14"/>
  <rect x="26" y="24" width="12" height="3" rx="1.5" fill="#0A0E14"/>
  <!-- AI chip -->
  <rect x="38" y="38" width="14" height="14" rx="3" fill="#0A0E14" stroke="#ffffff" stroke-width="1"/>
  <text x="45" y="48" font-family="Arial, sans-serif" font-size="8" font-weight="bold" fill="#FF6B1A" text-anchor="middle">AI</text>
  <!-- Chip pins -->
  <line x1="41" y1="38" x2="41" y2="36" stroke="#ffffff" stroke-width="1"/>
  <line x1="45" y1="38" x2="45" y2="36" stroke="#ffffff" stroke-width="1"/>
  <line x1="49" y1="38" x2="49" y2="36" stroke="#ffffff" stroke-width="1"/>
  <line x1="41" y1="52" x2="41" y2="54" stroke="#ffffff" stroke-width="1"/>
  <line x1="45" y1="52" x2="45" y2="54" stroke="#ffffff" stroke-width="1"/>
  <line x1="49" y1="52" x2="49" y2="54" stroke="#ffffff" stroke-width="1"/>
</svg>
